<svg xmlns="http://www.w3.org/2000/svg" xmlns:xlink="http://www.w3.org/1999/xlink" width="500" zoomAndPan="magnify" viewBox="0 0 375 374.999991" height="500" preserveAspectRatio="xMidYMid meet" version="1.0"><defs><g/></defs><g fill="#22c55e" fill-opacity="1"><g transform="translate(-2.595913, 266.023115)"><g><path d="M 125.144531 -168.324219 L 98.730469 -168.324219 C 90.136719 -168.324219 83.21875 -161.410156 83.21875 -152.8125 L 83.21875 -115.5 C 83.21875 -114.242188 82.171875 -112.984375 81.125 -112.777344 L 66.660156 -112.777344 C 65.613281 -112.984375 64.5625 -114.242188 64.355469 -115.292969 L 64.355469 -152.8125 C 64.355469 -161.410156 57.4375 -168.324219 48.839844 -168.324219 L 22.429688 -168.324219 C 13.835938 -168.324219 6.917969 -161.410156 6.917969 -152.8125 L 6.917969 -15.300781 C 6.917969 -6.5 13.835938 0.417969 22.429688 0.417969 L 48.839844 0.417969 C 57.4375 0.417969 64.355469 -6.5 64.355469 -15.300781 L 64.355469 -52.40625 C 64.5625 -53.871094 65.191406 -54.710938 66.660156 -55.128906 L 81.125 -55.128906 C 82.171875 -54.710938 83.21875 -53.871094 83.21875 -52.40625 L 83.21875 -15.300781 C 83.21875 -6.5 90.136719 0.417969 98.730469 0.417969 L 125.144531 0.417969 C 133.949219 0.417969 140.867188 -6.5 140.867188 -15.300781 L 140.867188 -152.8125 C 140.867188 -161.410156 133.949219 -168.324219 125.144531 -168.324219 Z M 125.144531 -168.324219 "/></g></g></g><g fill="#22c55e" fill-opacity="1"><g transform="translate(145.175434, 266.023115)"><g><path d="M 214.441406 -14.464844 C 214.441406 -15.929688 214.441406 -15.09375 194.527344 -150.925781 C 192.851562 -159.941406 185.09375 -166.859375 175.664062 -167.066406 L 139.398438 -167.066406 C 130.175781 -167.066406 122.417969 -160.570312 120.953125 -151.765625 L 112.566406 -102.085938 C 112.355469 -100.199219 110.890625 -98.941406 109.003906 -98.941406 C 106.90625 -98.941406 105.230469 -100.828125 105.230469 -102.714844 L 105.230469 -102.503906 L 99.570312 -150.507812 C 98.3125 -159.730469 90.347656 -166.859375 80.703125 -167.066406 L 44.441406 -167.066406 C 35.214844 -167.066406 27.671875 -160.570312 25.992188 -151.765625 L 15.722656 -89.089844 L 6.5 -34.167969 L 3.773438 -16.980469 C 3.5625 -15.929688 3.5625 -15.09375 3.5625 -14.464844 C 3.5625 -6.5 10.0625 0 17.816406 0 L 45.90625 0 C 52.824219 -0.210938 58.484375 -5.242188 59.53125 -11.949219 L 70.011719 -71.0625 L 71.0625 -77.140625 L 80.074219 -12.785156 C 80.703125 -5.660156 86.78125 0 94.121094 0 L 124.304688 0 C 131.640625 0 137.722656 -5.660156 138.558594 -12.785156 L 146.734375 -72.949219 L 147.152344 -75.042969 L 148.203125 -71.0625 L 158.265625 -11.949219 C 159.523438 -5.242188 165.179688 -0.210938 172.097656 0 L 199.976562 0 C 208.152344 0 214.441406 -6.5 214.441406 -14.464844 Z M 214.441406 -14.464844 "/></g></g></g><path stroke-linecap="butt" transform="matrix(1.093827, 0, 0, 1.093827, -25.006992, 93.430856)" fill="none" stroke-linejoin="miter" d="M 141.471414 -0.883149 L 117.33026 -0.883149 C 109.4701 -0.883149 103.152688 5.434262 103.152688 13.294422 L 103.152688 47.402731 C 103.152688 48.570506 102.21704 49.695426 101.234966 49.881127 L 88.04304 49.881127 C 87.060966 49.695426 86.121747 48.570506 85.88962 47.588432 L 85.88962 13.294422 C 85.88962 5.434262 79.572209 -0.883149 71.712049 -0.883149 L 47.570894 -0.883149 C 39.710734 -0.883149 33.393323 5.434262 33.393323 13.294422 L 33.393323 139.010555 C 33.393323 147.056416 39.710734 153.373828 47.570894 153.373828 L 71.712049 153.373828 C 79.572209 153.373828 85.88962 147.056416 85.88962 139.010555 L 85.88962 105.091519 C 86.121747 103.734472 86.685993 102.984525 88.04304 102.609551 L 101.234966 102.609551 C 102.21704 102.984525 103.152688 103.734472 103.152688 105.091519 L 103.152688 139.010555 C 103.152688 147.056416 109.4701 153.373828 117.33026 153.373828 L 141.471414 153.373828 C 149.520846 153.373828 155.884683 147.056416 155.884683 139.010555 L 155.884683 13.294422 C 155.884683 5.434262 149.520846 -0.883149 141.471414 -0.883149 Z M 358.21327 139.760502 C 358.21327 138.449881 358.21327 139.196257 340.010982 15.026443 C 338.468234 6.79131 331.404446 0.473898 322.747914 0.241772 L 289.621679 0.241772 C 281.200844 0.241772 274.08706 6.180638 272.730013 14.276496 L 265.105551 59.659009 C 264.869853 61.39103 263.562803 62.558805 261.830782 62.558805 C 259.91306 62.558805 258.366741 60.830355 258.366741 59.098335 L 258.366741 59.284036 L 253.220675 15.397845 C 252.0529 6.977011 244.753415 0.473898 235.957607 0.241772 L 202.784947 0.241772 C 194.364112 0.241772 187.486026 6.180638 185.943277 14.276496 L 176.536798 71.543885 L 168.115963 121.747487 L 165.637567 137.467807 C 165.448294 138.449881 165.448294 139.196257 165.448294 139.760502 C 165.448294 147.056416 171.390732 152.998854 178.45452 152.998854 L 204.141994 152.998854 C 210.459405 152.813153 215.651896 148.227762 216.587545 142.099623 L 226.179725 88.014152 L 227.161799 82.493113 L 235.396932 141.303251 C 235.957607 147.806364 241.525071 152.998854 248.213885 152.998854 L 275.819081 152.998854 C 282.511466 152.998854 288.078931 147.806364 288.825307 141.303251 L 296.314064 86.328557 L 296.685467 84.410835 L 297.66754 88.014152 L 306.838322 142.099623 C 308.009668 148.227762 313.202159 152.813153 319.51957 152.998854 L 345.017772 152.998854 C 352.456533 152.998854 358.21327 147.056416 358.21327 139.760502 Z M 358.21327 139.760502 " stroke="#7ed957" stroke-width="3.114264" stroke-opacity="1" stroke-miterlimit="4"/></svg>